name sv02_filtered_grf.mot
datacolumns 37
datarows 10
range 0.970000 0.974500
endheader
time	1_ground_force_vx	1_ground_force_vy	1_ground_force_vz	1_ground_force_px	1_ground_force_py	1_ground_force_pz	1_ground_torque_x	1_ground_torque_y	1_ground_torque_z	2_ground_force_vx	2_ground_force_vy	2_ground_force_vz	2_ground_force_px	2_ground_force_py	2_ground_force_pz	2_ground_torque_x	2_ground_torque_y	2_ground_torque_z	3_ground_force_vx	3_ground_force_vy	3_ground_force_vz	3_ground_force_px	3_ground_force_py	3_ground_force_pz	3_ground_torque_x	3_ground_torque_y	3_ground_torque_z	4_ground_force_vx	4_ground_force_vy	4_ground_force_vz	4_ground_force_px	4_ground_force_py	4_ground_force_pz	4_ground_torque_x	4_ground_torque_y	4_ground_torque_z
            0.970000	            0.000000	           -0.000000	            0.000000	            0.450000	            0.000000	            0.900000	           -0.000000	           -0.000000	            0.000000	            0.000000	           -0.000000	           -0.000000	           -0.201858	            0.000000	            0.417690	           -0.000000	            0.000000	           -0.000000	           -1.375296	          284.007375	           36.740832	            0.380314	            1.019755	            1.096601	           -1.780845	            1.992744	          -28.389809	           -8.051187	          212.608287	           82.441093	           -0.492439	            1.016887	            1.098500	           -0.379395	           10.018721	            3.884864
            0.970500	            0.000000	           -0.000000	            0.000000	            0.450000	            0.000000	            0.900000	           -0.000000	           -0.000000	            0.000000	            0.000000	           -0.000000	           -0.000000	           -0.201858	            0.000000	            0.417690	           -0.000000	            0.000000	           -0.000000	           -1.301879	          284.285025	           36.600576	            0.380324	            1.019750	            1.096593	           -1.781647	            1.977962	          -28.415470	           -7.907849	          212.435675	           82.499521	           -0.492430	            1.016873	            1.098498	           -0.373276	           10.027643	            3.894241
            0.971000	            0.000000	           -0.000000	            0.000000	            0.450000	            0.000000	            0.900000	           -0.000000	           -0.000000	            0.000000	            0.000000	           -0.000000	           -0.000000	           -0.201858	            0.000000	            0.417690	           -0.000000	            0.000000	           -0.000000	           -1.223839	          284.570220	           36.470093	            0.380335	            1.019745	            1.096585	           -1.782494	            1.963834	          -28.442197	           -7.757227	          212.289372	           82.560161	           -0.492422	            1.016859	            1.098496	           -0.366790	           10.037815	            3.903745
            0.971500	           -0.000000	            0.000000	            0.000000	            0.450000	            0.000000	            0.900000	           -0.000000	           -0.000000	            0.000000	            0.000000	           -0.000000	            0.000000	           -0.201858	            0.000000	            0.417690	            0.000000	            0.000000	           -0.000000	           -1.141233	          284.862850	           36.349852	            0.380346	            1.019740	            1.096578	           -1.783383	            1.950410	          -28.470007	           -7.599946	          212.168422	           82.622491	           -0.492414	            1.016845	            1.098494	           -0.359964	           10.049152	            3.913334
            0.972000	           -0.000000	            0.000000	            0.000000	            0.450000	            0.000000	            0.900000	           -0.000000	           -0.000000	            0.000000	            0.000000	           -0.000000	            0.000000	           -0.201858	            0.000000	            0.417690	            0.000000	            0.000000	           -0.000000	           -1.054134	          285.162791	           36.240276	            0.380357	            1.019735	            1.096570	           -1.784309	            1.937736	          -28.498914	           -7.436609	          212.071878	           82.685987	           -0.492405	            1.016831	            1.098492	           -0.352824	           10.061573	            3.922967
            0.972500	           -0.000000	            0.000000	            0.000000	            0.450000	            0.000000	            0.900000	           -0.000000	           -0.000000	            0.000000	            0.000000	           -0.000000	            0.000000	           -0.201858	            0.000000	            0.417690	            0.000000	            0.000000	           -0.000000	           -0.962625	          285.469907	           36.141740	            0.380368	            1.019730	            1.096562	           -1.785269	            1.925855	          -28.528929	           -7.267795	          211.998808	           82.750136	           -0.492397	            1.016817	            1.098490	           -0.345393	           10.074996	            3.932604
            0.973000	           -0.000000	            0.000000	            0.000000	            0.450000	            0.000000	            0.900000	           -0.000000	           -0.000000	           -0.000000	            0.000000	            0.000000	            0.000000	           -0.201858	            0.000000	            0.417690	            0.000000	            0.000000	           -0.000000	           -0.866823	          285.783612	           36.058074	            0.380379	            1.019725	            1.096555	           -1.786237	            1.915153	          -28.560039	           -7.094335	          211.947566	           82.816295	           -0.492388	            1.016804	            1.098489	           -0.337710	           10.089307	            3.942291
            0.973500	           -0.000000	            0.000000	            0.000000	            0.450000	            0.000000	            0.900000	           -0.000000	           -0.000000	           -0.000000	            0.000000	            0.000000	            0.000000	           -0.201858	            0.000000	            0.417690	            0.000000	            0.000000	            0.000000	           -0.766816	          286.104195	           35.986041	            0.380390	            1.019720	            1.096548	           -1.787230	            1.905315	          -28.592275	           -6.916473	          211.918002	           82.882135	           -0.492379	            1.016790	            1.098489	           -0.329784	           10.104465	            3.951904
            0.974000	           -0.000000	            0.000000	            0.000000	            0.450000	            0.000000	            0.900000	           -0.000000	           -0.000000	           -0.000000	            0.000000	            0.000000	            0.000000	           -0.201858	            0.000000	            0.417690	            0.000000	            0.000000	            0.000000	           -0.662722	          286.431495	           35.925845	            0.380401	            1.019716	            1.096540	           -1.788240	            1.896367	          -28.625640	           -6.734701	          211.909262	           82.947212	           -0.492371	            1.016776	            1.098488	           -0.321637	           10.120398	            3.961407
            0.974500	           -0.000000	            0.000000	            0.000000	            0.450000	            0.000000	            0.900000	           -0.000000	           -0.000000	           -0.000000	            0.000000	            0.000000	            0.000000	           -0.201858	            0.000000	            0.417690	            0.000000	            0.000000	            0.000000	           -0.554664	          286.765347	           35.877624	            0.380412	            1.019711	            1.096533	           -1.789263	            1.888330	          -28.660134	           -6.549477	          211.920527	           83.011120	           -0.492362	            1.016762	            1.098488	           -0.313289	           10.137038	            3.970766
